<?xml version="1.0" encoding="UTF-8" standalone="no"?>
<!DOCTYPE svg PUBLIC "-//W3C//DTD SVG 1.1//EN"
 "http://www.w3.org/Graphics/SVG/1.1/DTD/svg11.dtd">
<!-- Generated by graphviz version 2.43.0 (0)
 -->
<!-- Title: BootstrapFlow Pages: 1 -->
<svg width="1290pt" height="1276pt"
 viewBox="0.00 0.00 1290.40 1276.40" xmlns="http://www.w3.org/2000/svg" xmlns:xlink="http://www.w3.org/1999/xlink">
<g id="graph0" class="graph" transform="scale(1 1) rotate(0) translate(25.2 1251.2)">
<title>BootstrapFlow</title>
<polygon fill="white" stroke="transparent" points="-25.2,25.2 -25.2,-1251.2 1265.2,-1251.2 1265.2,25.2 -25.2,25.2"/>
<text text-anchor="middle" x="620" y="-1204.4" font-family="Helvetica,sans-Serif" font-size="22.00">Implemented NCCL M2N Bootstrap Flow</text>
<g id="clust3" class="cluster">
<title>cluster_mx</title>
<path fill="white" stroke="#8b5cf6" stroke-dasharray="5,2" d="M20,-632C20,-632 436,-632 436,-632 442,-632 448,-638 448,-644 448,-644 448,-888 448,-888 448,-894 442,-900 436,-900 436,-900 20,-900 20,-900 14,-900 8,-894 8,-888 8,-888 8,-644 8,-644 8,-638 14,-632 20,-632"/>
<text text-anchor="middle" x="228" y="-883.2" font-family="Helvetica,sans-Serif" font-size="16.00" fill="#5b21b6">ModelExpress control plane</text>
</g>
<!-- ready -->
<g id="node1" class="node">
<title>ready</title>
<path fill="#fff7e6" stroke="#b7791f" stroke-width="1.6" d="M677.09,-397C677.09,-397 602.91,-363 602.91,-363 597.45,-360.5 597.45,-355.5 602.91,-353 602.91,-353 677.09,-319 677.09,-319 682.55,-316.5 693.45,-316.5 698.91,-319 698.91,-319 773.09,-353 773.09,-353 778.55,-355.5 778.55,-360.5 773.09,-363 773.09,-363 698.91,-397 698.91,-397 693.45,-399.5 682.55,-399.5 677.09,-397"/>
<text text-anchor="middle" x="688" y="-363" font-family="Helvetica,sans-Serif" font-size="15.00" fill="#0f172a">All ranks</text>
<text text-anchor="middle" x="688" y="-346" font-family="Helvetica,sans-Serif" font-size="15.00" fill="#0f172a">initialized?</text>
</g>
<!-- abort -->
<g id="node2" class="node">
<title>abort</title>
<path fill="#fdecec" stroke="#c53030" stroke-width="1.6" d="M1175,-384C1175,-384 917,-384 917,-384 911,-384 905,-378 905,-372 905,-372 905,-344 905,-344 905,-338 911,-332 917,-332 917,-332 1175,-332 1175,-332 1181,-332 1187,-338 1187,-344 1187,-344 1187,-372 1187,-372 1187,-378 1181,-384 1175,-384"/>
<text text-anchor="middle" x="1046" y="-363" font-family="Helvetica,sans-Serif" font-size="15.00" fill="#7f1d1d">AbortBootstrap + ncclCommAbort</text>
<text text-anchor="middle" x="1046" y="-346" font-family="Helvetica,sans-Serif" font-size="15.00" fill="#7f1d1d">fail whole cohort</text>
</g>
<!-- ready&#45;&gt;abort -->
<g id="edge10" class="edge">
<title>ready&#45;&gt;abort</title>
<path fill="none" stroke="#c53030" stroke-width="2" d="M784.41,-358C818.92,-358 858.68,-358 896.61,-358"/>
<polygon fill="#c53030" stroke="#c53030" stroke-width="2" points="896.68,-360.8 904.68,-358 896.68,-355.2 896.68,-360.8"/>
<text text-anchor="middle" x="844.5" y="-364.4" font-family="Helvetica,sans-Serif" font-size="12.00" fill="#991b1b">NO / TIMEOUT</text>
</g>
<!-- release -->
<g id="node13" class="node">
<title>release</title>
<path fill="#e8f1ff" stroke="#2b6cb0" stroke-width="1.6" d="M813.5,-247C813.5,-247 536.5,-247 536.5,-247 530.5,-247 524.5,-241 524.5,-235 524.5,-235 524.5,-223 524.5,-223 524.5,-217 530.5,-211 536.5,-211 536.5,-211 813.5,-211 813.5,-211 819.5,-211 825.5,-217 825.5,-223 825.5,-223 825.5,-235 825.5,-235 825.5,-241 819.5,-247 813.5,-247"/>
<text text-anchor="middle" x="675" y="-225.5" font-family="Helvetica,sans-Serif" font-size="15.00" fill="#0f172a">8. Coordinator releases whole cohort</text>
</g>
<!-- ready&#45;&gt;release -->
<g id="edge9" class="edge">
<title>ready&#45;&gt;release</title>
<path fill="none" stroke="#15803d" stroke-width="2" d="M683.78,-315.77C681.73,-295.72 679.33,-272.29 677.56,-254.99"/>
<polygon fill="#15803d" stroke="#15803d" stroke-width="2" points="680.34,-254.71 676.74,-247.03 674.77,-255.28 680.34,-254.71"/>
<text text-anchor="middle" x="693.5" y="-281.4" font-family="Helvetica,sans-Serif" font-size="12.00" fill="#166534">YES</text>
</g>
<!-- retry -->
<g id="node15" class="node">
<title>retry</title>
<path fill="#fdecec" stroke="#c53030" stroke-width="1.6" d="M1228,-255C1228,-255 868,-255 868,-255 862,-255 856,-249 856,-243 856,-243 856,-215 856,-215 856,-209 862,-203 868,-203 868,-203 1228,-203 1228,-203 1234,-203 1240,-209 1240,-215 1240,-215 1240,-243 1240,-243 1240,-249 1234,-255 1228,-255"/>
<text text-anchor="middle" x="1048" y="-234" font-family="Helvetica,sans-Serif" font-size="15.00" fill="#7f1d1d">Restart at step 1</text>
<text text-anchor="middle" x="1048" y="-217" font-family="Helvetica,sans-Serif" font-size="15.00" fill="#7f1d1d">new attempt ID • new UID • new communicator</text>
</g>
<!-- abort&#45;&gt;retry -->
<g id="edge13" class="edge">
<title>abort&#45;&gt;retry</title>
<path fill="none" stroke="#c53030" stroke-width="1.5" d="M1046.4,-331.91C1046.7,-312.25 1047.14,-284.73 1047.48,-263.24"/>
<polygon fill="#c53030" stroke="#c53030" stroke-width="1.5" points="1050.28,-263.08 1047.61,-255.04 1044.68,-262.99 1050.28,-263.08"/>
</g>
<!-- reshard -->
<g id="node3" class="node">
<title>reshard</title>
<path fill="#e6fffa" stroke="#0f766e" stroke-width="2" d="M852,-54.5C852,-54.5 498,-54.5 498,-54.5 492,-54.5 486,-48.5 486,-42.5 486,-42.5 486,-14.5 486,-14.5 486,-8.5 492,-2.5 498,-2.5 498,-2.5 852,-2.5 852,-2.5 858,-2.5 864,-8.5 864,-14.5 864,-14.5 864,-42.5 864,-42.5 864,-48.5 858,-54.5 852,-54.5"/>
<text text-anchor="middle" x="675" y="-33.5" font-family="Helvetica,sans-Serif" font-size="15.00" fill="#0f172a">10. Every rank enters ncclReshardWithWindow</text>
<text text-anchor="middle" x="675" y="-16.5" font-family="Helvetica,sans-Serif" font-size="15.00" fill="#0f172a">in identical parameter order</text>
</g>
<!-- requirement -->
<g id="node4" class="node">
<title>requirement</title>
<polygon fill="#fffbea" stroke="#a16207" stroke-width="1.6" points="420.5,-57 111.5,-57 111.5,0 426.5,0 426.5,-51 420.5,-57"/>
<polyline fill="none" stroke="#a16207" stroke-width="1.6" points="420.5,-57 420.5,-51 "/>
<polyline fill="none" stroke="#a16207" stroke-width="1.6" points="426.5,-51 420.5,-51 "/>
<text text-anchor="middle" x="269" y="-38.4" font-family="Helvetica,sans-Serif" font-size="12.00" fill="#713f12">M2N prerequisite</text>
<text text-anchor="middle" x="269" y="-25.4" font-family="Helvetica,sans-Serif" font-size="12.00" fill="#713f12">On a nonblocking communicator, M2N must poll</text>
<text text-anchor="middle" x="269" y="-12.4" font-family="Helvetica,sans-Serif" font-size="12.00" fill="#713f12">its internal ncclDevCommCreate before use.</text>
</g>
<!-- requirement&#45;&gt;reshard -->
<g id="edge14" class="edge">
<title>requirement&#45;&gt;reshard</title>
<path fill="none" stroke="#a16207" stroke-width="1.5" stroke-dasharray="5,2" d="M426.68,-28.5C442.75,-28.5 465.12,-28.5 485.72,-28.5"/>
</g>
<!-- service -->
<g id="node5" class="node">
<title>service</title>
<path fill="#f2eafe" stroke="#6b46c1" stroke-width="1.6" d="M417.5,-856C417.5,-856 38.5,-856 38.5,-856 32.5,-856 26.5,-850 26.5,-844 26.5,-844 26.5,-816 26.5,-816 26.5,-810 32.5,-804 38.5,-804 38.5,-804 417.5,-804 417.5,-804 423.5,-804 429.5,-810 429.5,-816 429.5,-816 429.5,-844 429.5,-844 429.5,-850 423.5,-856 417.5,-856"/>
<text text-anchor="middle" x="228" y="-835" font-family="Helvetica,sans-Serif" font-size="15.00" fill="#0f172a">4. M2nBootstrapService</text>
<text text-anchor="middle" x="228" y="-818" font-family="Helvetica,sans-Serif" font-size="15.00" fill="#0f172a">PublishBootstrap • GetBootstrap • AbortBootstrap</text>
</g>
<!-- store -->
<g id="node6" class="node">
<title>store</title>
<path fill="#f2eafe" stroke="#6b46c1" stroke-width="1.6" d="M367.5,-736.36C367.5,-741.13 304.97,-745 228,-745 151.03,-745 88.5,-741.13 88.5,-736.36 88.5,-736.36 88.5,-658.64 88.5,-658.64 88.5,-653.87 151.03,-650 228,-650 304.97,-650 367.5,-653.87 367.5,-658.64 367.5,-658.64 367.5,-736.36 367.5,-736.36"/>
<path fill="none" stroke="#6b46c1" stroke-width="1.6" d="M367.5,-736.36C367.5,-731.6 304.97,-727.73 228,-727.73 151.03,-727.73 88.5,-731.6 88.5,-736.36"/>
<text text-anchor="middle" x="228" y="-711" font-family="Helvetica,sans-Serif" font-size="15.00" fill="#0f172a">Memory or Redis</text>
<text text-anchor="middle" x="228" y="-694" font-family="Helvetica,sans-Serif" font-size="15.00" fill="#0f172a">immutable UID + topology record</text>
<text text-anchor="middle" x="228" y="-677" font-family="Helvetica,sans-Serif" font-size="15.00" fill="#0f172a">PUBLISHED / ABORTED / EXPIRED</text>
</g>
<!-- service&#45;&gt;store -->
<g id="edge1" class="edge">
<title>service&#45;&gt;store</title>
<path fill="none" stroke="#6b46c1" stroke-width="1.5" d="M228,-795.68C228,-782.87 228,-767.89 228,-753.57"/>
<polygon fill="#6b46c1" stroke="#6b46c1" stroke-width="1.5" points="225.2,-795.84 228,-803.84 230.8,-795.84 225.2,-795.84"/>
<polygon fill="#6b46c1" stroke="#6b46c1" stroke-width="1.5" points="230.8,-753.24 228,-745.24 225.2,-753.24 230.8,-753.24"/>
<text text-anchor="middle" x="266" y="-771.4" font-family="Helvetica,sans-Serif" font-size="12.00" fill="#5b21b6">atomic state</text>
</g>
<!-- validate -->
<g id="node10" class="node">
<title>validate</title>
<path fill="#e8f8ef" stroke="#2f855a" stroke-width="1.6" d="M898,-723.5C898,-723.5 478,-723.5 478,-723.5 472,-723.5 466,-717.5 466,-711.5 466,-711.5 466,-683.5 466,-683.5 466,-677.5 472,-671.5 478,-671.5 478,-671.5 898,-671.5 898,-671.5 904,-671.5 910,-677.5 910,-683.5 910,-683.5 910,-711.5 910,-711.5 910,-717.5 904,-723.5 898,-723.5"/>
<text text-anchor="middle" x="688" y="-702.5" font-family="Helvetica,sans-Serif" font-size="15.00" fill="#0f172a">5. Every rank fetches same record and validates</text>
<text text-anchor="middle" x="688" y="-685.5" font-family="Helvetica,sans-Serif" font-size="15.00" fill="#0f172a">attempt • world sizes • rank • publisher • digests • UID</text>
</g>
<!-- service&#45;&gt;validate -->
<g id="edge5" class="edge">
<title>service&#45;&gt;validate</title>
<path fill="none" stroke="#6b46c1" stroke-width="1.5" d="M316.15,-803.99C395.12,-781.59 510.71,-748.8 592,-725.73"/>
<polygon fill="#6b46c1" stroke="#6b46c1" stroke-width="1.5" points="592.83,-728.41 599.76,-723.53 591.3,-723.02 592.83,-728.41"/>
<text text-anchor="middle" x="497" y="-771.4" font-family="Helvetica,sans-Serif" font-size="12.00" fill="#334155">Get immutable record</text>
</g>
<!-- coordinator -->
<g id="node7" class="node">
<title>coordinator</title>
<path fill="#e8f1ff" stroke="#2b6cb0" stroke-width="1.6" d="M408,-1194C408,-1194 48,-1194 48,-1194 42,-1194 36,-1188 36,-1182 36,-1182 36,-1154 36,-1154 36,-1148 42,-1142 48,-1142 48,-1142 408,-1142 408,-1142 414,-1142 420,-1148 420,-1154 420,-1154 420,-1182 420,-1182 420,-1188 414,-1194 408,-1194"/>
<text text-anchor="middle" x="228" y="-1173" font-family="Helvetica,sans-Serif" font-size="15.00" fill="#0f172a">1. NeMo RL / Dynamo freezes cohort</text>
<text text-anchor="middle" x="228" y="-1156" font-family="Helvetica,sans-Serif" font-size="15.00" fill="#0f172a">roster • NCCL ranks • sizes • digests • deadline</text>
</g>
<!-- assignment -->
<g id="node8" class="node">
<title>assignment</title>
<path fill="#e8f1ff" stroke="#2b6cb0" stroke-width="1.6" d="M414,-1095C414,-1095 42,-1095 42,-1095 36,-1095 30,-1089 30,-1083 30,-1083 30,-1055 30,-1055 30,-1049 36,-1043 42,-1043 42,-1043 414,-1043 414,-1043 420,-1043 426,-1049 426,-1055 426,-1055 426,-1083 426,-1083 426,-1089 420,-1095 414,-1095"/>
<text text-anchor="middle" x="228" y="-1074" font-family="Helvetica,sans-Serif" font-size="15.00" fill="#0f172a">2. Coordinator dispatches immutable assignment</text>
<text text-anchor="middle" x="228" y="-1057" font-family="Helvetica,sans-Serif" font-size="15.00" fill="#0f172a">to every source and destination rank</text>
</g>
<!-- coordinator&#45;&gt;assignment -->
<g id="edge2" class="edge">
<title>coordinator&#45;&gt;assignment</title>
<path fill="none" stroke="#475569" stroke-width="1.5" d="M228,-1141.77C228,-1129.98 228,-1115.79 228,-1103.15"/>
<polygon fill="#475569" stroke="#475569" stroke-width="1.5" points="230.8,-1103.11 228,-1095.11 225.2,-1103.11 230.8,-1103.11"/>
</g>
<!-- uid -->
<g id="node9" class="node">
<title>uid</title>
<path fill="#e8f8ef" stroke="#2f855a" stroke-width="1.6" d="M313.5,-996C313.5,-996 142.5,-996 142.5,-996 136.5,-996 130.5,-990 130.5,-984 130.5,-984 130.5,-956 130.5,-956 130.5,-950 136.5,-944 142.5,-944 142.5,-944 313.5,-944 313.5,-944 319.5,-944 325.5,-950 325.5,-956 325.5,-956 325.5,-984 325.5,-984 325.5,-990 319.5,-996 313.5,-996"/>
<text text-anchor="middle" x="228" y="-975" font-family="Helvetica,sans-Serif" font-size="15.00" fill="#0f172a">3. Source NCCL rank 0</text>
<text text-anchor="middle" x="228" y="-958" font-family="Helvetica,sans-Serif" font-size="15.00" fill="#0f172a">ncclGetUniqueId()</text>
</g>
<!-- assignment&#45;&gt;uid -->
<g id="edge3" class="edge">
<title>assignment&#45;&gt;uid</title>
<path fill="none" stroke="#475569" stroke-width="1.5" d="M228,-1042.77C228,-1030.98 228,-1016.79 228,-1004.15"/>
<polygon fill="#475569" stroke="#475569" stroke-width="1.5" points="230.8,-1004.11 228,-996.11 225.2,-1004.11 230.8,-1004.11"/>
</g>
<!-- uid&#45;&gt;service -->
<g id="edge4" class="edge">
<title>uid&#45;&gt;service</title>
<path fill="none" stroke="#6b46c1" stroke-width="1.5" d="M228,-943.69C228,-921.42 228,-888.82 228,-864.41"/>
<polygon fill="#6b46c1" stroke="#6b46c1" stroke-width="1.5" points="230.8,-864.15 228,-856.15 225.2,-864.15 230.8,-864.15"/>
<text text-anchor="middle" x="291.5" y="-911.4" font-family="Helvetica,sans-Serif" font-size="12.00" fill="#334155">Publish UID + digests</text>
</g>
<!-- init -->
<g id="node11" class="node">
<title>init</title>
<path fill="#e8f8ef" stroke="#2f855a" stroke-width="1.6" d="M838,-600C838,-600 538,-600 538,-600 532,-600 526,-594 526,-588 526,-588 526,-560 526,-560 526,-554 532,-548 538,-548 538,-548 838,-548 838,-548 844,-548 850,-554 850,-560 850,-560 850,-588 850,-588 850,-594 844,-600 838,-600"/>
<text text-anchor="middle" x="688" y="-579" font-family="Helvetica,sans-Serif" font-size="15.00" fill="#0f172a">6. Every rank starts one communicator</text>
<text text-anchor="middle" x="688" y="-562" font-family="Helvetica,sans-Serif" font-size="15.00" fill="#0f172a">ncclCommInitRankConfig(blocking = 0)</text>
</g>
<!-- validate&#45;&gt;init -->
<g id="edge6" class="edge">
<title>validate&#45;&gt;init</title>
<path fill="none" stroke="#475569" stroke-width="1.5" d="M688,-671.33C688,-653.08 688,-628.22 688,-608.33"/>
<polygon fill="#475569" stroke="#475569" stroke-width="1.5" points="690.8,-608.14 688,-600.14 685.2,-608.14 690.8,-608.14"/>
</g>
<!-- poll -->
<g id="node12" class="node">
<title>poll</title>
<path fill="#e8f8ef" stroke="#2f855a" stroke-width="1.6" d="M869.5,-501C869.5,-501 506.5,-501 506.5,-501 500.5,-501 494.5,-495 494.5,-489 494.5,-489 494.5,-461 494.5,-461 494.5,-455 500.5,-449 506.5,-449 506.5,-449 869.5,-449 869.5,-449 875.5,-449 881.5,-455 881.5,-461 881.5,-461 881.5,-489 881.5,-489 881.5,-495 875.5,-501 869.5,-501"/>
<text text-anchor="middle" x="688" y="-480" font-family="Helvetica,sans-Serif" font-size="15.00" fill="#0f172a">7. Every rank polls until terminal result</text>
<text text-anchor="middle" x="688" y="-463" font-family="Helvetica,sans-Serif" font-size="15.00" fill="#0f172a">ncclCommGetAsyncError + MX state + deadline</text>
</g>
<!-- init&#45;&gt;poll -->
<g id="edge7" class="edge">
<title>init&#45;&gt;poll</title>
<path fill="none" stroke="#475569" stroke-width="1.5" d="M688,-547.77C688,-535.98 688,-521.79 688,-509.15"/>
<polygon fill="#475569" stroke="#475569" stroke-width="1.5" points="690.8,-509.11 688,-501.11 685.2,-509.11 690.8,-509.11"/>
</g>
<!-- poll&#45;&gt;ready -->
<g id="edge8" class="edge">
<title>poll&#45;&gt;ready</title>
<path fill="none" stroke="#475569" stroke-width="1.5" d="M688,-448.76C688,-437.48 688,-423.76 688,-410.46"/>
<polygon fill="#475569" stroke="#475569" stroke-width="1.5" points="690.8,-410.27 688,-402.27 685.2,-410.27 690.8,-410.27"/>
</g>
<!-- window -->
<g id="node14" class="node">
<title>window</title>
<path fill="#e6fffa" stroke="#0f766e" stroke-width="1.6" d="M840,-156C840,-156 510,-156 510,-156 504,-156 498,-150 498,-144 498,-144 498,-116 498,-116 498,-110 504,-104 510,-104 510,-104 840,-104 840,-104 846,-104 852,-110 852,-116 852,-116 852,-144 852,-144 852,-150 846,-156 840,-156"/>
<text text-anchor="middle" x="675" y="-135" font-family="Helvetica,sans-Serif" font-size="15.00" fill="#0f172a">9. Every rank registers symmetric window</text>
<text text-anchor="middle" x="675" y="-118" font-family="Helvetica,sans-Serif" font-size="15.00" fill="#0f172a">flag 0x01 • 4 KiB alignment • async polling</text>
</g>
<!-- release&#45;&gt;window -->
<g id="edge11" class="edge">
<title>release&#45;&gt;window</title>
<path fill="none" stroke="#475569" stroke-width="1.5" d="M675,-210.66C675,-197.88 675,-180.09 675,-164.56"/>
<polygon fill="#475569" stroke="#475569" stroke-width="1.5" points="677.8,-164.21 675,-156.21 672.2,-164.21 677.8,-164.21"/>
</g>
<!-- window&#45;&gt;reshard -->
<g id="edge12" class="edge">
<title>window&#45;&gt;reshard</title>
<path fill="none" stroke="#475569" stroke-width="1.5" d="M675,-103.89C675,-91.4 675,-76.14 675,-62.69"/>
<polygon fill="#475569" stroke="#475569" stroke-width="1.5" points="677.8,-62.6 675,-54.6 672.2,-62.6 677.8,-62.6"/>
</g>
</g>
</svg>
