<?xml version="1.0" encoding="UTF-8" standalone="no"?>
<!DOCTYPE svg PUBLIC "-//W3C//DTD SVG 1.1//EN"
 "http://www.w3.org/Graphics/SVG/1.1/DTD/svg11.dtd">
<!-- Generated by graphviz version 2.43.0 (0)
 -->
<!-- Title: BootstrapFlow Pages: 1 -->
<svg width="749pt" height="1235pt"
 viewBox="0.00 0.00 748.60 1234.60" xmlns="http://www.w3.org/2000/svg" xmlns:xlink="http://www.w3.org/1999/xlink">
<g id="graph0" class="graph" transform="scale(1 1) rotate(0) translate(28.8 1205.8)">
<title>BootstrapFlow</title>
<polygon fill="#ffffff" stroke="transparent" points="-28.8,28.8 -28.8,-1205.8 719.8,-1205.8 719.8,28.8 -28.8,28.8"/>
<text text-anchor="middle" x="345.5" y="-1149" font-family="Arial" font-size="30.00">WeightSync&#45;Based NCCL M2N Bootstrap</text>
<!-- coordinator -->
<g id="node1" class="node">
<title>coordinator</title>
<path fill="#eef4ff" stroke="#315c9b" stroke-width="2" d="M562.5,-1136C562.5,-1136 89.5,-1136 89.5,-1136 83.5,-1136 77.5,-1130 77.5,-1124 77.5,-1124 77.5,-1062 77.5,-1062 77.5,-1056 83.5,-1050 89.5,-1050 89.5,-1050 562.5,-1050 562.5,-1050 568.5,-1050 574.5,-1056 574.5,-1062 574.5,-1062 574.5,-1124 574.5,-1124 574.5,-1130 568.5,-1136 562.5,-1136"/>
<text text-anchor="middle" x="326" y="-1110" font-family="Arial" font-size="20.00">Coordinator</text>
<text text-anchor="middle" x="326" y="-1088" font-family="Arial" font-size="20.00">Defines cohort + attempt</text>
<text text-anchor="middle" x="326" y="-1066" font-family="Arial" font-size="20.00">Freezes ordered roster, roles, NCCL ranks, and sizes</text>
</g>
<!-- assignments -->
<g id="node2" class="node">
<title>assignments</title>
<path fill="#eef4ff" stroke="#315c9b" stroke-width="2" d="M579.5,-1009C579.5,-1009 72.5,-1009 72.5,-1009 66.5,-1009 60.5,-1003 60.5,-997 60.5,-997 60.5,-957 60.5,-957 60.5,-951 66.5,-945 72.5,-945 72.5,-945 579.5,-945 579.5,-945 585.5,-945 591.5,-951 591.5,-957 591.5,-957 591.5,-997 591.5,-997 591.5,-1003 585.5,-1009 579.5,-1009"/>
<text text-anchor="middle" x="326" y="-983" font-family="Arial" font-size="20.00">Coordinator sends each participant</text>
<text text-anchor="middle" x="326" y="-961" font-family="Arial" font-size="20.00">cohort_id, attempt_id, assigned rank, sizes, roster_digest</text>
</g>
<!-- coordinator&#45;&gt;assignments -->
<g id="edge1" class="edge">
<title>coordinator&#45;&gt;assignments</title>
<path fill="none" stroke="#334155" stroke-width="2" d="M326,-1049.87C326,-1039.26 326,-1027.92 326,-1017.44"/>
<polygon fill="#334155" stroke="#334155" stroke-width="2" points="328.8,-1017.26 326,-1009.26 323.2,-1017.26 328.8,-1017.26"/>
</g>
<!-- rank0 -->
<g id="node3" class="node">
<title>rank0</title>
<path fill="#fff5d9" stroke="#a56800" stroke-width="2" d="M466.5,-904C466.5,-904 185.5,-904 185.5,-904 179.5,-904 173.5,-898 173.5,-892 173.5,-892 173.5,-852 173.5,-852 173.5,-846 179.5,-840 185.5,-840 185.5,-840 466.5,-840 466.5,-840 472.5,-840 478.5,-846 478.5,-852 478.5,-852 478.5,-892 478.5,-892 478.5,-898 472.5,-904 466.5,-904"/>
<text text-anchor="middle" x="326" y="-878" font-family="Arial" font-size="20.00">Assigned NCCL rank 0 only</text>
<text text-anchor="middle" x="326" y="-856" font-family="Arial" font-size="20.00">ncclGetUniqueId() exactly once</text>
</g>
<!-- assignments&#45;&gt;rank0 -->
<g id="edge2" class="edge">
<title>assignments&#45;&gt;rank0</title>
<path fill="none" stroke="#334155" stroke-width="2" d="M326,-944.82C326,-934.53 326,-922.96 326,-912.15"/>
<polygon fill="#334155" stroke="#334155" stroke-width="2" points="328.8,-912.08 326,-904.08 323.2,-912.08 328.8,-912.08"/>
</g>
<!-- publish -->
<g id="node4" class="node">
<title>publish</title>
<path fill="#e8f8ef" stroke="#207a48" stroke-width="2" d="M567,-799C567,-799 85,-799 85,-799 79,-799 73,-793 73,-787 73,-787 73,-747 73,-747 73,-741 79,-735 85,-735 85,-735 567,-735 567,-735 573,-735 579,-741 579,-747 579,-747 579,-787 579,-787 579,-793 573,-799 567,-799"/>
<text text-anchor="middle" x="326" y="-773" font-family="Arial" font-size="20.00">PublishNcclBootstrap(record)</text>
<text text-anchor="middle" x="326" y="-751" font-family="Arial" font-size="20.00">WeightSyncService stores whole record by attempt_id</text>
</g>
<!-- rank0&#45;&gt;publish -->
<g id="edge3" class="edge">
<title>rank0&#45;&gt;publish</title>
<path fill="none" stroke="#334155" stroke-width="2" d="M326,-839.82C326,-829.53 326,-817.96 326,-807.15"/>
<polygon fill="#334155" stroke="#334155" stroke-width="2" points="328.8,-807.08 326,-799.08 323.2,-807.08 328.8,-807.08"/>
</g>
<!-- get -->
<g id="node5" class="node">
<title>get</title>
<path fill="#e8f8ef" stroke="#207a48" stroke-width="2" d="M591,-694C591,-694 61,-694 61,-694 55,-694 49,-688 49,-682 49,-682 49,-642 49,-642 49,-636 55,-630 61,-630 61,-630 591,-630 591,-630 597,-630 603,-636 603,-642 603,-642 603,-682 603,-682 603,-688 597,-694 591,-694"/>
<text text-anchor="middle" x="326" y="-668" font-family="Arial" font-size="20.00">Every participant, including rank 0</text>
<text text-anchor="middle" x="326" y="-646" font-family="Arial" font-size="20.00">polls GetNcclBootstrap(attempt_id) with remaining deadline</text>
</g>
<!-- publish&#45;&gt;get -->
<g id="edge4" class="edge">
<title>publish&#45;&gt;get</title>
<path fill="none" stroke="#334155" stroke-width="2" d="M326,-734.82C326,-724.53 326,-712.96 326,-702.15"/>
<polygon fill="#334155" stroke="#334155" stroke-width="2" points="328.8,-702.08 326,-694.08 323.2,-702.08 328.8,-702.08"/>
</g>
<!-- validate -->
<g id="node6" class="node">
<title>validate</title>
<path fill="#eef4ff" stroke="#315c9b" stroke-width="2" d="M582,-589C582,-589 70,-589 70,-589 64,-589 58,-583 58,-577 58,-577 58,-537 58,-537 58,-531 64,-525 70,-525 70,-525 582,-525 582,-525 588,-525 594,-531 594,-537 594,-537 594,-577 594,-577 594,-583 588,-589 582,-589"/>
<text text-anchor="middle" x="326" y="-563" font-family="Arial" font-size="20.00">Client validates</text>
<text text-anchor="middle" x="326" y="-541" font-family="Arial" font-size="20.00">cohort + attempt + sizes + roster digest + UID + local rank</text>
</g>
<!-- get&#45;&gt;validate -->
<g id="edge5" class="edge">
<title>get&#45;&gt;validate</title>
<path fill="none" stroke="#334155" stroke-width="2" d="M326,-629.82C326,-619.53 326,-607.96 326,-597.15"/>
<polygon fill="#334155" stroke="#334155" stroke-width="2" points="328.8,-597.08 326,-589.08 323.2,-597.08 328.8,-597.08"/>
</g>
<!-- init -->
<g id="node7" class="node">
<title>init</title>
<path fill="#eef4ff" stroke="#315c9b" stroke-width="2" d="M440.5,-484C440.5,-484 211.5,-484 211.5,-484 205.5,-484 199.5,-478 199.5,-472 199.5,-472 199.5,-432 199.5,-432 199.5,-426 205.5,-420 211.5,-420 211.5,-420 440.5,-420 440.5,-420 446.5,-420 452.5,-426 452.5,-432 452.5,-432 452.5,-472 452.5,-472 452.5,-478 446.5,-484 440.5,-484"/>
<text text-anchor="middle" x="326" y="-458" font-family="Arial" font-size="20.00">ncclCommInitRankConfig</text>
<text text-anchor="middle" x="326" y="-436" font-family="Arial" font-size="20.00">blocking = 0</text>
</g>
<!-- validate&#45;&gt;init -->
<g id="edge6" class="edge">
<title>validate&#45;&gt;init</title>
<path fill="none" stroke="#334155" stroke-width="2" d="M326,-524.82C326,-514.53 326,-502.96 326,-492.15"/>
<polygon fill="#334155" stroke="#334155" stroke-width="2" points="328.8,-492.08 326,-484.08 323.2,-492.08 328.8,-492.08"/>
</g>
<!-- poll -->
<g id="node8" class="node">
<title>poll</title>
<path fill="#eef4ff" stroke="#315c9b" stroke-width="2" d="M600.5,-379C600.5,-379 51.5,-379 51.5,-379 45.5,-379 39.5,-373 39.5,-367 39.5,-367 39.5,-327 39.5,-327 39.5,-321 45.5,-315 51.5,-315 51.5,-315 600.5,-315 600.5,-315 606.5,-315 612.5,-321 612.5,-327 612.5,-327 612.5,-367 612.5,-367 612.5,-373 606.5,-379 600.5,-379"/>
<text text-anchor="middle" x="326" y="-353" font-family="Arial" font-size="20.00">Stop reading MX</text>
<text text-anchor="middle" x="326" y="-331" font-family="Arial" font-size="20.00">Poll ncclCommGetAsyncError until success, error, or deadline</text>
</g>
<!-- init&#45;&gt;poll -->
<g id="edge7" class="edge">
<title>init&#45;&gt;poll</title>
<path fill="none" stroke="#334155" stroke-width="2" d="M326,-419.82C326,-409.53 326,-397.96 326,-387.15"/>
<polygon fill="#334155" stroke="#334155" stroke-width="2" points="328.8,-387.08 326,-379.08 323.2,-387.08 328.8,-387.08"/>
</g>
<!-- report -->
<g id="node9" class="node">
<title>report</title>
<path fill="#eef4ff" stroke="#315c9b" stroke-width="2" d="M547.5,-274C547.5,-274 104.5,-274 104.5,-274 98.5,-274 92.5,-268 92.5,-262 92.5,-262 92.5,-244 92.5,-244 92.5,-238 98.5,-232 104.5,-232 104.5,-232 547.5,-232 547.5,-232 553.5,-232 559.5,-238 559.5,-244 559.5,-244 559.5,-262 559.5,-262 559.5,-268 553.5,-274 547.5,-274"/>
<text text-anchor="middle" x="326" y="-248" font-family="Arial" font-size="20.00">Each participant reports local result to coordinator</text>
</g>
<!-- poll&#45;&gt;report -->
<g id="edge8" class="edge">
<title>poll&#45;&gt;report</title>
<path fill="none" stroke="#334155" stroke-width="2" d="M326,-314.85C326,-304.35 326,-292.68 326,-282.4"/>
<polygon fill="#334155" stroke="#334155" stroke-width="2" points="328.8,-282.14 326,-274.14 323.2,-282.14 328.8,-282.14"/>
</g>
<!-- decision -->
<g id="node10" class="node">
<title>decision</title>
<polygon fill="#f4f0ff" stroke="#6941a5" stroke-width="2" points="326,-191 36,-157 326,-123 616,-157 326,-191"/>
<text text-anchor="middle" x="326" y="-152" font-family="Arial" font-size="20.00">Did every participant initialize?</text>
</g>
<!-- report&#45;&gt;decision -->
<g id="edge9" class="edge">
<title>report&#45;&gt;decision</title>
<path fill="none" stroke="#334155" stroke-width="2" d="M326,-231.6C326,-222.13 326,-210.51 326,-199.32"/>
<polygon fill="#334155" stroke="#334155" stroke-width="2" points="328.8,-199.29 326,-191.29 323.2,-199.29 328.8,-199.29"/>
</g>
<!-- release -->
<g id="node11" class="node">
<title>release</title>
<path fill="#dcfce7" stroke="#16803c" stroke-width="2" d="M282,-64C282,-64 12,-64 12,-64 6,-64 0,-58 0,-52 0,-52 0,-12 0,-12 0,-6 6,0 12,0 12,0 282,0 282,0 288,0 294,-6 294,-12 294,-12 294,-52 294,-52 294,-58 288,-64 282,-64"/>
<text text-anchor="middle" x="147" y="-38" font-family="Arial" font-size="20.00">Coordinator releases all ranks</text>
<text text-anchor="middle" x="147" y="-16" font-family="Arial" font-size="20.00">M2N collectives may begin</text>
</g>
<!-- decision&#45;&gt;release -->
<g id="edge10" class="edge">
<title>decision&#45;&gt;release</title>
<path fill="none" stroke="#334155" stroke-width="2" d="M284.93,-127.78C259.43,-110.26 226.42,-87.58 199.09,-68.8"/>
<polygon fill="#334155" stroke="#334155" stroke-width="2" points="200.45,-66.33 192.27,-64.11 197.28,-70.95 200.45,-66.33"/>
<text text-anchor="middle" x="301" y="-89.4" font-family="Arial" font-size="17.00">all succeeded</text>
</g>
<!-- terminate -->
<g id="node12" class="node">
<title>terminate</title>
<path fill="#fee2e2" stroke="#b42318" stroke-width="2" d="M679,-64C679,-64 331,-64 331,-64 325,-64 319,-58 319,-52 319,-52 319,-12 319,-12 319,-6 325,0 331,0 331,0 679,0 679,0 685,0 691,-6 691,-12 691,-12 691,-52 691,-52 691,-58 685,-64 679,-64"/>
<text text-anchor="middle" x="505" y="-38" font-family="Arial" font-size="20.00">Coordinator terminates whole attempt</text>
<text text-anchor="middle" x="505" y="-16" font-family="Arial" font-size="20.00">Retry requires new attempt_id and UID</text>
</g>
<!-- decision&#45;&gt;terminate -->
<g id="edge11" class="edge">
<title>decision&#45;&gt;terminate</title>
<path fill="none" stroke="#334155" stroke-width="2" d="M367.07,-127.78C392.57,-110.26 425.58,-87.58 452.91,-68.8"/>
<polygon fill="#334155" stroke="#334155" stroke-width="2" points="454.72,-70.95 459.73,-64.11 451.55,-66.33 454.72,-70.95"/>
<text text-anchor="middle" x="466" y="-89.4" font-family="Arial" font-size="17.00">any failure</text>
</g>
</g>
</svg>
